<svg xmlns="http://www.w3.org/2000/svg" viewBox="0 0 375 812" width="375" height="812">
  <defs>
    <symbol id="childcare-shield" viewBox="0 0 400 520">
      <path d="M 200 35 C 240 60, 348 63, 366 64 V 239 C 366 337, 296 414, 200 453 C 104 414, 34 337, 34 239 V 64 C 52 63, 160 60, 200 35 Z" fill="#D4748E"/>
      <path d="M 200 51 C 234 68, 334 74, 354 77 V 236 C 354 326, 288 397, 200 434 C 112 397, 46 326, 46 236 V 77 C 66 74, 166 68, 200 51 Z" fill="#B85578"/>
      <path d="M 200 59 C 230 69, 328 80, 350 79 V 236 C 350 322, 286 393, 200 430 C 114 393, 50 322, 50 236 V 79 C 72 80, 170 69, 200 59 Z" fill="#D88AA0"/>
      <path d="M 200 67 C 228 77, 322 85, 342 88 V 236 C 342 318, 280 386, 200 420 C 120 386, 58 318, 58 236 V 88 C 78 85, 172 77, 200 67 Z" fill="#263347"/>
      <path d="M 200 67 C 172 77, 78 85, 58 88 V 236 C 58 318, 120 386, 200 420 Z" fill="#2D3B52"/>
      <path d="M 200 142 C 280 142, 330 165, 326 278 C 324 347, 268 388, 200 422 Z" fill="#D85B8A"/>
      <path d="M 200 142 C 120 142, 70 165, 74 278 C 76 347, 132 388, 200 422 Z" fill="#E06B96"/>
      <path d="M 274 334 A 108 117 0 1 0 126 334" fill="none" stroke="#fff" stroke-width="61" stroke-linecap="round"/>
      <g transform="matrix(1.3514, 0, 0, 1.3514, -70.28, -51.0)">
        <circle cx="200" cy="222" r="36" fill="none" stroke="#fff" stroke-width="5" opacity="0.9"/>
        <circle cx="186" cy="214" r="4" fill="#fff" opacity="0.9"/>
        <circle cx="214" cy="214" r="4" fill="#fff" opacity="0.9"/>
        <path d="M 186,234 Q 200,248 214,234" fill="none" stroke="#fff" stroke-width="3.5" stroke-linecap="round" opacity="0.85"/>
        <path d="M 183,188 Q 192,172 200,182 Q 208,172 217,188" fill="none" stroke="#fff" stroke-width="4" stroke-linecap="round" opacity="0.9"/>
      </g>
    </symbol>
  </defs>
  <!--
    SCREEN 3b: Liveness Check
    On the HOLDER's phone — after they consented on the Incoming Request screen.
    High-value CachPack requires proof of physical presence before KB-JWT signing.
    Front camera activates for a Veriff liveness session.

    Design tokens (from Color.kt):
      BrandPrimaryDark  #0F172A   background
      BrandPrimary      #1E293B   card/camera bg
      BrandAccent       #10B981   active step, scanning brackets
      BrandAccentLight  #34D399   active step glow
      BrandWarm         #F97068   (not used on this screen)
      SurfaceBorderDark #334155   borders, connectors, pending step
      TextSecondaryDark #A8A29E   subtitle text
      TextTertiaryDark  #64748B   hint text, camera placeholder
      TextOnBrand       #FFFFFF   headings, step icons
  -->

  <!-- Phone background — BrandPrimaryDark -->
  <rect width="375" height="812" rx="40" fill="#0F172A"/>

  <!-- Status bar -->
  <text x="30" y="52" font-family="Inter, sans-serif" font-size="14" font-weight="600" fill="#FFFFFF">9:41</text>
  <circle cx="320" cy="48" r="4" fill="#10B981"/>
  <rect x="332" y="44" width="20" height="8" rx="2" fill="#FFFFFF"/>

  <!-- Top bar: Back arrow (left) + Close X (right) -->
  <text x="30" y="95" font-family="Inter, sans-serif" font-size="20" fill="#A8A29E">&#x2190;</text>
  <text x="340" y="95" text-anchor="middle" font-family="Inter, sans-serif" font-size="18" font-weight="500" fill="#A8A29E">&#x2715;</text>

  <!-- Step indicator: Consent [done] > Liveness [active] > Result [pending] -->
  <circle cx="148" cy="90" r="8" fill="#10B981"/>
  <text x="148" y="94" text-anchor="middle" font-family="Inter, sans-serif" font-size="10" font-weight="700" fill="#FFFFFF">&#x2713;</text>
  <line x1="156" y1="90" x2="181" y2="90" stroke="#334155" stroke-width="2"/>
  <circle cx="188" cy="90" r="8" fill="#10B981" stroke="#34D399" stroke-width="2"/>
  <circle cx="188" cy="90" r="3" fill="#FFFFFF"/>
  <line x1="196" y1="90" x2="221" y2="90" stroke="#334155" stroke-width="2"/>
  <circle cx="228" cy="90" r="8" fill="#334155"/>

  <!-- Pack badge (CachetMark — Childcare shown here; swap symbol for other types) -->
  <use href="#childcare-shield" x="160" y="108" width="56" height="73"/>

  <!-- Header text -->
  <text x="188" y="198" text-anchor="middle" font-family="Inter, sans-serif" font-size="22" font-weight="700" fill="#FFFFFF">Prove it&#x2019;s you</text>
  <text x="188" y="222" text-anchor="middle" font-family="Inter, sans-serif" font-size="14" fill="#A8A29E">A quick identity check is required for</text>
  <!-- Pack name: color is dynamic per cachet type (shown here as Childcare) -->
  <text x="188" y="240" text-anchor="middle" font-family="Inter, sans-serif" font-size="14" font-weight="600" fill="#D88AA0">Childcare Readiness</text>

  <!-- Camera viewfinder — large circle for face framing -->
  <circle cx="188" cy="390" r="130" fill="#1E293B" stroke="#334155" stroke-width="2"/>

  <!-- Face outline guide (dashed) -->
  <ellipse cx="188" cy="380" rx="70" ry="90" fill="none" stroke="#64748B" stroke-width="1.5" stroke-dasharray="8 6" opacity="0.6"/>

  <!-- Camera icon in center (placeholder for live feed) -->
  <circle cx="188" cy="365" r="18" fill="none" stroke="#64748B" stroke-width="1.5" opacity="0.5"/>
  <circle cx="180" cy="358" r="3" fill="#64748B" opacity="0.5"/>
  <circle cx="196" cy="358" r="3" fill="#64748B" opacity="0.5"/>
  <path d="M 178,378 Q 188,390 198,378" fill="none" stroke="#64748B" stroke-width="1.5" stroke-linecap="round" opacity="0.5"/>

  <!-- Scanning animation hint — corner brackets (BrandAccent) -->
  <path d="M 108 285 L 108 270 Q 108 260, 118 260 L 133 260" fill="none" stroke="#10B981" stroke-width="3" stroke-linecap="round"/>
  <path d="M 268 285 L 268 270 Q 268 260, 258 260 L 243 260" fill="none" stroke="#10B981" stroke-width="3" stroke-linecap="round"/>
  <path d="M 108 495 L 108 510 Q 108 520, 118 520 L 133 520" fill="none" stroke="#10B981" stroke-width="3" stroke-linecap="round"/>
  <path d="M 268 495 L 268 510 Q 268 520, 258 520 L 243 520" fill="none" stroke="#10B981" stroke-width="3" stroke-linecap="round"/>

  <!-- Instruction text below viewfinder -->
  <text x="188" y="570" text-anchor="middle" font-family="Inter, sans-serif" font-size="15" font-weight="500" fill="#FFFFFF">Position your face in the frame</text>
  <text x="188" y="592" text-anchor="middle" font-family="Inter, sans-serif" font-size="13" fill="#64748B">Look straight at the camera and hold still</text>

  <!-- Why this is needed — trust explanation card (BrandPrimary bg, SurfaceBorderDark stroke) -->
  <rect x="32" y="620" width="311" height="60" rx="12" fill="#1E293B" stroke="#334155" stroke-width="1"/>
  <!-- Shield icon (Material Icons style) — BrandAccent, vertically centered in card -->
  <g transform="translate(48,639)">
    <path d="M 9 1 L 1 5 V 11 C 1 16 4.5 20.5 9 22 C 13.5 20.5 17 16 17 11 V 5 Z" fill="#10B981"/>
  </g>
  <text x="80" y="645" font-family="Inter, sans-serif" font-size="12" fill="#A8A29E">This check ensures only <tspan font-weight="600" fill="#FFFFFF">you</tspan> can sign</text>
  <text x="80" y="665" font-family="Inter, sans-serif" font-size="12" fill="#A8A29E">this high-value verification response.</text>

  <!-- Cancel button (outlined, SurfaceBorderDark stroke, TextSecondaryDark text) -->
  <rect x="32" y="704" width="311" height="44" rx="22" fill="none" stroke="#334155" stroke-width="1"/>
  <text x="188" y="731" text-anchor="middle" font-family="Inter, sans-serif" font-size="14" font-weight="500" fill="#A8A29E">Cancel</text>
</svg>
